<?xml version="1.0" encoding="UTF-8" standalone="no"?>
<svg
   version="1.0"
   width="1235.000000pt"
   height="556.000000pt"
   viewBox="0 0 1235.000000 556.000000"
   preserveAspectRatio="xMidYMid meet"
   id="svg26"
   sodipodi:docname="logo-fence-primary.svg"
   inkscape:version="1.1.2 (0a00cf5339, 2022-02-04, custom)"
   xmlns:inkscape="http://www.inkscape.org/namespaces/inkscape"
   xmlns:sodipodi="http://sodipodi.sourceforge.net/DTD/sodipodi-0.dtd"
   xmlns="http://www.w3.org/2000/svg"
   xmlns:svg="http://www.w3.org/2000/svg">
  <defs
     id="defs30" />
  <sodipodi:namedview
     id="namedview28"
     pagecolor="#ffffff"
     bordercolor="#666666"
     borderopacity="1.0"
     inkscape:pageshadow="2"
     inkscape:pageopacity="0.0"
     inkscape:pagecheckerboard="0"
     inkscape:document-units="pt"
     showgrid="false"
     inkscape:zoom="0.95404858"
     inkscape:cx="580.15913"
     inkscape:cy="371.05029"
     inkscape:window-width="1920"
     inkscape:window-height="974"
     inkscape:window-x="-11"
     inkscape:window-y="-11"
     inkscape:window-maximized="1"
     inkscape:current-layer="svg26" />
  <g
     transform="translate(0.000000,556.000000) scale(0.100000,-0.100000)"
     fill="#000000"
     stroke="none"
     id="g24"
     style="fill:#fad85b;fill-opacity:1">
    <path
       d="M1596 3888 c-57 -89 -386 -676 -386 -689 0 -39 30 -48 175 -51 l140 -3 0 -165 0 -165 -47 -3 -48 -3 0 -55 0 -54 81 0 c73 0 80 2 74 18 -16 38 -15 49 5 75 26 33 78 37 103 9 20 -22 22 -73 5 -90 -9 -9 75 -12 379 -12 l391 0 -11 29 c-21 57 24 103 87 87 31 -8 50 -53 37 -89 l-11 -27 401 0 c392 0 400 0 389 19 -39 75 58 140 110 74 20 -26 21 -37 5 -75 -7 -17 15 -18 379 -18 l387 0 -11 21 c-36 67 56 133 110 79 22 -22 27 -69 8 -88 -9 -9 8 -12 80 -12 l92 0 0 55 0 54 -57 3 -58 3 0 165 0 165 141 5 c145 5 174 13 174 49 0 9 -89 171 -198 361 -188 328 -199 345 -228 348 -31 3 -33 1 -204 -300 -96 -167 -184 -320 -197 -340 -26 -42 -30 -90 -10 -106 8 -7 71 -13 153 -14 l139 -3 0 -165 0 -165 -327 -3 -328 -2 0 170 0 170 136 0 c74 0 144 5 155 10 11 7 19 21 19 38 0 16 -74 156 -192 365 -199 348 -214 367 -256 341 -23 -15 -402 -682 -402 -709 0 -13 6 -27 13 -32 6 -4 77 -10 157 -13 l145 -5 0 -165 0 -165 -330 0 -330 0 0 165 0 165 148 5 c154 5 166 9 167 52 0 22 -382 689 -402 702 -43 26 -57 7 -258 -345 -107 -188 -193 -350 -193 -361 4 -44 18 -48 169 -48 l144 0 0 -170 0 -170 -330 0 -330 0 0 170 0 170 136 0 c74 0 144 5 155 10 11 7 19 21 19 38 0 25 -350 651 -388 695 -21 24 -59 21 -76 -5z"
       id="path2"
       style="fill:#fad85b;fill-opacity:1" />
    <path
       d="M5174 3435 c-9 -22 4 -35 37 -35 43 0 95 -25 111 -52 10 -18 13 -140 13 -610 0 -580 0 -587 -21 -615 -19 -26 -38 -33 -121 -49 -15 -3 -23 -12 -23 -24 0 -19 8 -20 285 -20 273 0 285 1 285 19 0 23 -19 31 -72 31 -63 0 -104 25 -123 73 -13 35 -15 84 -13 292 l3 250 101 0 c84 -1 106 -4 135 -22 47 -30 67 -68 79 -154 11 -80 18 -93 46 -87 15 2 19 12 19 41 -1 20 -2 150 -3 288 l-2 250 -27 -3 c-25 -3 -28 -8 -39 -73 -15 -87 -25 -114 -55 -142 -37 -34 -73 -43 -170 -43 l-89 0 0 268 c1 147 5 284 11 305 17 64 40 72 219 72 126 0 164 -3 202 -18 87 -34 125 -101 148 -262 5 -38 10 -76 10 -83 0 -8 10 -12 26 -10 l26 3 4 213 3 212 -500 0 c-428 0 -500 -2 -505 -15z"
       id="path4"
       style="fill:#fad85b;fill-opacity:1" />
    <path
       d="M9347 3265 c-77 -17 -192 -75 -250 -126 -141 -124 -210 -298 -208 -529 1 -180 48 -319 146 -427 115 -127 250 -183 448 -184 113 -1 180 20 281 89 43 29 86 52 95 50 10 -2 21 -23 30 -56 12 -44 17 -52 38 -52 l24 0 -3 216 c-3 192 -5 218 -20 228 -26 16 -35 1 -53 -84 -43 -209 -171 -328 -360 -338 -65 -3 -91 0 -140 19 -113 42 -209 167 -252 329 -14 50 -18 105 -18 240 0 197 11 255 70 376 42 85 96 144 167 181 45 23 65 27 138 27 75 1 93 -3 152 -31 115 -54 191 -153 227 -295 16 -64 22 -73 43 -76 l25 -3 6 158 c4 87 7 184 7 216 0 57 0 57 -30 57 -25 0 -30 -4 -30 -24 0 -34 -19 -84 -35 -90 -8 -2 -33 10 -57 28 -73 56 -123 84 -178 100 -63 19 -180 19 -263 1z"
       id="path6"
       style="fill:#fad85b;fill-opacity:1" />
    <path
       d="M6320 3225 c0 -22 5 -25 33 -25 51 0 100 -30 114 -70 16 -46 18 -927 3 -982 -12 -43 -37 -60 -100 -68 -37 -4 -46 -9 -48 -27 -3 -23 -2 -23 120 -23 498 -1 882 0 884 2 1 2 -2 55 -7 118 -5 63 -7 148 -3 188 l6 72 -26 0 c-29 0 -29 2 -45 -90 -17 -90 -53 -162 -99 -193 -58 -40 -114 -49 -277 -45 -147 3 -147 3 -171 31 -24 28 -24 29 -24 269 l0 241 111 -5 c89 -5 116 -10 138 -25 25 -19 63 -97 76 -156 4 -22 11 -28 28 -25 19 3 22 9 22 51 -1 26 -2 128 -3 227 l-2 180 -24 0 c-20 0 -25 -8 -40 -62 -32 -116 -65 -138 -203 -138 l-103 0 0 225 c0 236 6 274 46 289 9 3 62 9 118 12 111 7 237 -8 274 -32 47 -31 87 -115 101 -214 5 -39 9 -45 31 -45 l24 0 2 132 c1 73 5 150 9 172 l7 41 -486 0 -486 0 0 -25z"
       id="path8"
       style="fill:#fad85b;fill-opacity:1" />
    <path
       d="M7512 3228 c2 -16 11 -24 28 -26 67 -9 100 -24 115 -52 22 -42 23 -966 1 -1009 -21 -40 -39 -52 -93 -59 -40 -6 -49 -11 -51 -30 l-3 -22 201 0 201 0 -3 23 c-3 19 -11 23 -56 29 -63 7 -97 34 -112 87 -12 43 -14 921 -2 921 7 0 83 -103 505 -690 50 -69 107 -147 127 -175 20 -27 62 -84 93 -126 52 -73 82 -95 106 -80 7 5 11 176 13 551 2 441 6 550 17 572 14 28 74 58 116 58 20 0 25 5 25 25 l0 25 -201 0 c-200 0 -200 0 -197 -22 2 -18 13 -24 61 -33 39 -8 67 -20 85 -39 l27 -26 3 -373 c2 -272 0 -369 -8 -361 -6 6 -66 88 -133 181 -67 94 -203 283 -302 421 l-180 252 -193 0 -193 0 3 -22z"
       id="path10"
       style="fill:#fad85b;fill-opacity:1" />
    <path
       d="M10152 3228 c2 -18 13 -24 61 -33 69 -14 87 -29 98 -87 11 -58 11 -893 -1 -942 -12 -55 -38 -77 -101 -84 -47 -6 -54 -10 -54 -29 0 -13 3 -23 8 -23 4 0 230 0 502 0 l494 0 -4 188 -4 187 -25 3 c-23 3 -25 -1 -36 -70 -25 -151 -81 -226 -184 -248 -33 -7 -115 -10 -196 -8 -137 3 -140 3 -167 31 l-28 27 0 238 0 237 105 -1 c152 -1 171 -14 208 -139 16 -52 21 -60 43 -60 18 0 24 5 23 23 0 12 -1 114 -2 227 l-2 205 -25 0 c-14 0 -27 -6 -29 -12 -26 -97 -40 -128 -67 -154 -30 -29 -32 -29 -142 -29 l-112 0 0 215 c0 118 3 227 8 242 15 54 45 63 212 62 242 0 272 -24 321 -249 7 -32 13 -40 31 -40 23 0 23 2 27 173 l5 172 -485 0 -485 0 3 -22z"
       id="path12"
       style="fill:#fad85b;fill-opacity:1" />
    <path
       d="M1528 2408 l-3 -243 -47 -3 -48 -3 0 -55 0 -54 85 0 84 0 -17 29 c-16 29 -16 31 4 58 25 33 65 41 98 19 30 -19 37 -48 20 -80 l-13 -26 389 0 388 0 -11 29 c-31 82 90 132 123 51 10 -25 10 -34 -4 -55 l-16 -25 405 0 c398 0 406 0 395 19 -41 78 61 139 114 68 20 -27 20 -29 4 -58 l-17 -29 390 0 c382 0 390 0 379 19 -37 70 54 137 110 81 22 -22 27 -69 8 -88 -9 -9 8 -12 80 -12 l92 0 0 55 0 54 -57 3 -58 3 -3 243 -2 242 -110 0 -110 0 -2 -242 -3 -243 -325 0 -325 0 -3 243 -2 242 -110 0 -110 0 0 -77 c-1 -43 -2 -152 -3 -243 l-2 -165 -330 0 -330 0 -3 243 -2 242 -110 0 -110 0 -2 -242 -3 -243 -325 0 -325 0 -3 243 -2 242 -110 0 -110 0 -2 -242z"
       id="path14"
       style="fill:#fad85b;fill-opacity:1" />
    <path
       d="M1532 1838 l3 -163 99 -3 c73 -2 102 1 108 10 4 7 8 82 8 166 l0 152 -110 0 -110 0 2 -162z"
       id="path16"
       style="fill:#fad85b;fill-opacity:1" />
    <path
       d="M2412 1838 l3 -163 105 0 105 0 3 163 2 162 -110 0 -110 0 2 -162z"
       id="path18"
       style="fill:#fad85b;fill-opacity:1" />
    <path
       d="M3298 1953 c-1 -27 -1 -100 2 -163 l5 -115 105 0 105 0 3 163 2 162 -109 0 -109 0 -4 -47z"
       id="path20"
       style="fill:#fad85b;fill-opacity:1" />
    <path
       d="M4182 1838 l3 -163 105 0 105 0 3 163 2 162 -110 0 -110 0 2 -162z"
       id="path22"
       style="fill:#fad85b;fill-opacity:1" />
  </g>
</svg>
