<?xml version="1.0" encoding="UTF-8" standalone="no"?>
<svg
   version="1.0"
   width="1235.000000pt"
   height="556.000000pt"
   viewBox="0 0 1235.000000 556.000000"
   preserveAspectRatio="xMidYMid meet"
   id="svg26"
   sodipodi:docname="isologo-fence-black.svg"
   inkscape:version="1.1.2 (0a00cf5339, 2022-02-04, custom)"
   xmlns:inkscape="http://www.inkscape.org/namespaces/inkscape"
   xmlns:sodipodi="http://sodipodi.sourceforge.net/DTD/sodipodi-0.dtd"
   xmlns="http://www.w3.org/2000/svg"
   xmlns:svg="http://www.w3.org/2000/svg">
  <defs
     id="defs30" />
  <sodipodi:namedview
     id="namedview28"
     pagecolor="#ffffff"
     bordercolor="#666666"
     borderopacity="1.0"
     inkscape:pageshadow="2"
     inkscape:pageopacity="0.0"
     inkscape:pagecheckerboard="0"
     inkscape:document-units="pt"
     showgrid="false"
     inkscape:zoom="0.95404858"
     inkscape:cx="586.44812"
     inkscape:cy="371.05029"
     inkscape:window-width="1920"
     inkscape:window-height="974"
     inkscape:window-x="-11"
     inkscape:window-y="-11"
     inkscape:window-maximized="1"
     inkscape:current-layer="svg26" />
  <g
     id="g1595">
    <path
       d="m 159.6,167.2 c -5.7,8.9 -38.6,67.6 -38.6,68.9 0,3.9 3,4.8 17.5,5.1 l 14,0.3 v 16.5 16.5 l -4.7,0.3 -4.8,0.3 v 5.5 5.4 h 8.1 c 7.3,0 8,-0.2 7.4,-1.8 -1.6,-3.8 -1.5,-4.9 0.5,-7.5 2.6,-3.3 7.8,-3.7 10.3,-0.9 2,2.2 2.2,7.3 0.5,9 -0.9,0.9 7.5,1.2 37.9,1.2 h 39.1 l -1.1,-2.9 c -2.1,-5.7 2.4,-10.3 8.7,-8.7 3.1,0.8 5,5.3 3.7,8.9 L 257,286 h 40.1 c 39.2,0 40,0 38.9,-1.9 -3.9,-7.5 5.8,-14 11,-7.4 2,2.6 2.1,3.7 0.5,7.5 -0.7,1.7 1.5,1.8 37.9,1.8 h 38.7 l -1.1,-2.1 c -3.6,-6.7 5.6,-13.3 11,-7.9 2.2,2.2 2.7,6.9 0.8,8.8 -0.9,0.9 0.8,1.2 8,1.2 h 9.2 v -5.5 -5.4 l -5.7,-0.3 -5.8,-0.3 V 258 241.5 l 14.1,-0.5 c 14.5,-0.5 17.4,-1.3 17.4,-4.9 0,-0.9 -8.9,-17.1 -19.8,-36.1 -18.8,-32.8 -19.9,-34.5 -22.8,-34.8 -3.1,-0.3 -3.3,-0.1 -20.4,30 -9.6,16.7 -18.4,32 -19.7,34 -2.6,4.2 -3,9 -1,10.6 0.8,0.7 7.1,1.3 15.3,1.4 l 13.9,0.3 v 16.5 16.5 l -32.7,0.3 -32.8,0.2 v -17 -17 h 13.6 c 7.4,0 14.4,-0.5 15.5,-1 1.1,-0.7 1.9,-2.1 1.9,-3.8 0,-1.6 -7.4,-15.6 -19.2,-36.5 -19.9,-34.8 -21.4,-36.7 -25.6,-34.1 -2.3,1.5 -40.2,68.2 -40.2,70.9 0,1.3 0.6,2.7 1.3,3.2 0.6,0.4 7.7,1 15.7,1.3 l 14.5,0.5 v 16.5 16.5 h -33 -33 V 258 241.5 l 14.8,-0.5 c 15.4,-0.5 16.6,-0.9 16.7,-5.2 0,-2.2 -38.2,-68.9 -40.2,-70.2 -4.3,-2.6 -5.7,-0.7 -25.8,34.5 -10.7,18.8 -19.3,35 -19.3,36.1 0.4,4.4 1.8,4.8 16.9,4.8 H 241 v 17 17 h -33 -33 v -17 -17 h 13.6 c 7.4,0 14.4,-0.5 15.5,-1 1.1,-0.7 1.9,-2.1 1.9,-3.8 0,-2.5 -35,-65.1 -38.8,-69.5 -2.1,-2.4 -5.9,-2.1 -7.6,0.5 z"
       id="path2"
       style="fill:#1a1a12;fill-opacity:1;stroke:none;stroke-width:0.1" />
    <path
       d="m 152.8,315.2 -0.3,24.3 -4.7,0.3 -4.8,0.3 v 5.5 5.4 h 8.5 8.4 l -1.7,-2.9 c -1.6,-2.9 -1.6,-3.1 0.4,-5.8 2.5,-3.3 6.5,-4.1 9.8,-1.9 3,1.9 3.7,4.8 2,8 l -1.3,2.6 h 38.9 38.8 l -1.1,-2.9 c -3.1,-8.2 9,-13.2 12.3,-5.1 1,2.5 1,3.4 -0.4,5.5 L 256,351 h 40.5 c 39.8,0 40.6,0 39.5,-1.9 -4.1,-7.8 6.1,-13.9 11.4,-6.8 2,2.7 2,2.9 0.4,5.8 l -1.7,2.9 h 39 c 38.2,0 39,0 37.9,-1.9 -3.7,-7 5.4,-13.7 11,-8.1 2.2,2.2 2.7,6.9 0.8,8.8 -0.9,0.9 0.8,1.2 8,1.2 h 9.2 v -5.5 -5.4 l -5.7,-0.3 -5.8,-0.3 -0.3,-24.3 L 440,291 h -11 -11 l -0.2,24.2 -0.3,24.3 H 385 352.5 L 352.2,315.2 352,291 h -11 -11 v 7.7 c -0.1,4.3 -0.2,15.2 -0.3,24.3 l -0.2,16.5 h -33 -33 L 263.2,315.2 263,291 h -11 -11 l -0.2,24.2 -0.3,24.3 H 208 175.5 L 175.2,315.2 175,291 h -11 -11 z"
       id="path14"
       style="fill:#1a1a12;fill-opacity:1;stroke:none;stroke-width:0.1" />
    <path
       d="m 153.2,372.2 0.3,16.3 9.9,0.3 c 7.3,0.2 10.2,-0.1 10.8,-1 0.4,-0.7 0.8,-8.2 0.8,-16.6 V 356 h -11 -11 z"
       id="path16"
       style="fill:#1a1a12;fill-opacity:1;stroke:none;stroke-width:0.1" />
    <path
       d="m 241.2,372.2 0.3,16.3 h 10.5 10.5 l 0.3,-16.3 0.2,-16.2 h -11 -11 z"
       id="path18"
       style="fill:#1a1a12;fill-opacity:1;stroke:none;stroke-width:0.1" />
    <path
       d="m 329.8,360.7 c -0.1,2.7 -0.1,10 0.2,16.3 l 0.5,11.5 h 10.5 10.5 l 0.3,-16.3 0.2,-16.2 h -10.9 -10.9 z"
       id="path20"
       style="fill:#1a1a12;fill-opacity:1;stroke:none;stroke-width:0.1" />
    <path
       d="m 418.2,372.2 0.3,16.3 h 10.5 10.5 l 0.3,-16.3 0.2,-16.2 h -11 -11 z"
       id="path22"
       style="fill:#1a1a12;fill-opacity:1;stroke:none;stroke-width:0.1" />
  </g>
</svg>
